<?xml version="1.0" encoding="UTF-8"?>
<svg id="Layer_2" data-name="Layer 2" xmlns="http://www.w3.org/2000/svg" xmlns:xlink="http://www.w3.org/1999/xlink" viewBox="0 0 174.27 30.32">
  <defs>
    <style>
      .cls-1 {
        fill: url(#linear-gradient);
      }

      .cls-2, .cls-3 {
        fill: #fff;
      }

      .cls-4 {
        fill: #231f20;
      }

      .cls-5 {
        fill: #77797c;
      }

      .cls-3, .cls-6 {
        opacity: .15;
      }

      .cls-7 {
        fill: url(#linear-gradient-3);
      }

      .cls-8 {
        fill: url(#linear-gradient-2);
      }
    </style>
    <linearGradient id="linear-gradient" x1="31.46" y1="-5.61" x2="1.47" y2="26.94" gradientUnits="userSpaceOnUse">
      <stop offset="0" stop-color="#b1d572"/>
      <stop offset="1" stop-color="#0095da"/>
    </linearGradient>
    <linearGradient id="linear-gradient-2" x1="41.63" y1="3.76" x2="11.64" y2="36.31" xlink:href="#linear-gradient"/>
    <linearGradient id="linear-gradient-3" x1="34.63" y1="-2.69" x2="4.64" y2="29.86" xlink:href="#linear-gradient"/>
  </defs>
  <g id="Layer_1-2" data-name="Layer 1">
    <g>
      <g>
        <path class="cls-1" d="M25.91,13.93c-.09,.66-.25,1.34-.47,2.03-.96,2.97-3.01,5.72-5.75,8.01-4.57,3.83-11.05,6.35-17.47,6.35-.57,0-1.13-.02-1.68-.06-.64-.05-.74-.94-.13-1.12,7.3-2.21,13.54-7.28,15.45-13.18,1.9-5.87-1.03-10.92-6.84-13.15-.57-.22-.45-1.05,.15-1.11,.77-.07,1.55-.11,2.33-.11,9.37,0,15.38,5.36,14.4,12.33Z"/>
        <path class="cls-1" d="M25.91,13.93c-.09,.66-.25,1.34-.47,2.03-.96,2.97-3.01,5.72-5.75,8.01-4.57,3.83-11.05,6.35-17.47,6.35-.57,0-1.13-.02-1.68-.06-.64-.05-.74-.94-.13-1.12,7.3-2.21,13.54-7.28,15.45-13.18,1.9-5.87-1.03-10.92-6.84-13.15-.57-.22-.45-1.05,.15-1.11,.77-.07,1.55-.11,2.33-.11,9.37,0,15.38,5.36,14.4,12.33Z"/>
        <path class="cls-8" d="M35.71,9.09c-4.43,1.62-8.12,4.79-9.32,8.47-1.18,3.66,.46,6.85,3.87,8.47,.53,.25,.38,1.07-.22,1.08-.25,.02-.49,.02-.74,.02-4.12,0-7.26-1.54-8.74-3.93-.11-.19-.22-.38-.31-.57-.28-.58-.47-1.19-.57-1.85-.14-1.01-.03-2.09,.33-3.22,.85-2.66,3.03-5.06,5.85-6.79,.02-.02,.03-.02,.05-.03,2.8-1.71,6.21-2.77,9.58-2.77h.03c.64,.02,.8,.9,.19,1.12Z"/>
        <circle class="cls-7" cx="29.21" cy="3.19" r="3.19"/>
        <g class="cls-6">
          <path class="cls-2" d="M35.72,9.09c-4.44,1.61-8.14,4.79-9.32,8.46-1.19,3.67,.45,6.86,3.86,8.47,.54,.26,.38,1.07-.21,1.09-.25,.01-.49,.02-.74,.02-4.11,0-7.25-1.55-8.73-3.93,2.3-2.13,4.02-4.6,4.87-7.24,.22-.69,.38-1.37,.47-2.03,.15-1.1,.13-2.16-.05-3.16,.02,0,.03-.02,.05-.03,2.79-1.7,6.2-2.75,9.58-2.75h.03c.64,0,.8,.89,.19,1.11Z"/>
        </g>
        <path class="cls-3" d="M20.02,17.56c-.36,1.13-.47,2.21-.33,3.22,.09,.66,.28,1.27,.57,1.85,.09,.19,.19,.38,.31,.57-.28,.27-.58,.52-.88,.77-4.57,3.83-11.05,6.35-17.47,6.35-.57,0-1.13-.02-1.68-.05-.63-.05-.74-.94-.13-1.13,7.31-2.2,13.54-7.27,15.46-13.18,1.9-5.86-1.04-10.92-6.84-13.14-.57-.22-.46-1.05,.14-1.12,.79-.06,1.56-.11,2.33-.11,7.9,0,13.4,3.8,14.36,9.18-2.81,1.73-5,4.13-5.85,6.79Z"/>
      </g>
      <g>
        <g>
          <path class="cls-4" d="M44.27,1.98h3.53V0h1.58V1.98h3.27v.6h-8.38v-.6Zm4.27,1.27c.48,0,.93,.06,1.35,.18,.42,.12,.79,.29,1.1,.52,.32,.23,.56,.51,.74,.84,.18,.33,.27,.7,.27,1.12s-.09,.8-.27,1.13c-.18,.33-.42,.62-.74,.85-.32,.23-.68,.41-1.1,.53-.42,.12-.87,.19-1.35,.19s-.93-.06-1.35-.19c-.42-.12-.78-.3-1.09-.53-.31-.23-.55-.51-.73-.85-.18-.33-.27-.71-.27-1.13s.09-.79,.27-1.12,.43-.61,.74-.84,.67-.41,1.09-.52c.41-.12,.86-.18,1.33-.18Zm0,4.88c.6,0,1.07-.2,1.42-.61,.34-.41,.52-.95,.52-1.61s-.17-1.2-.52-1.6c-.34-.4-.82-.6-1.42-.6s-1.07,.2-1.4,.6c-.33,.4-.5,.93-.5,1.6s.17,1.2,.5,1.61c.33,.41,.8,.61,1.4,.61Zm-1.58,1.9h1.58v3.27h6.98l.19,.6h-8.75v-3.87ZM53.5,.47h1.58V4.72c.34-.05,.7-.15,1.06-.29,.36-.14,.68-.33,.96-.58,.08,.05,.14,.14,.19,.26,.05,.12,.1,.24,.13,.38,.03,.13,.05,.27,.06,.4,0,.13,0,.24,0,.33h-2.39v5.08h-1.58V.47Z"/>
          <path class="cls-4" d="M59.51,.92h8.22V2.98c0,.87-.17,1.58-.5,2.14-.33,.56-.76,.96-1.27,1.21h3.34l.44-.06,.26,.66h-5.54v2.72h3.72v4.64h-1.58v-4.05h-7.56v-.6h3.84v-2.72h-4.98v-.6h7.09c.38-.02,.67-.29,.87-.8s.31-1.2,.31-2.06V1.51h-6.64V.92Z"/>
          <path class="cls-4" d="M71.41,1.02h7.03v.6h-2.68v1.31c0,.05,0,.1,0,.15,0,.05-.01,.1-.02,.15,.04,.18,.11,.39,.22,.61,.1,.23,.22,.45,.35,.68,.13,.23,.28,.44,.43,.64s.29,.36,.42,.49c.34,.34,.65,.62,.93,.83,.27,.21,.5,.36,.69,.44l-.13,.35c-.16-.05-.34-.13-.52-.23-.19-.1-.38-.21-.56-.32s-.37-.23-.53-.34c-.17-.11-.31-.22-.43-.31-.28-.2-.55-.44-.83-.7-.27-.26-.49-.49-.64-.69-.24,.34-.52,.67-.85,.98-.33,.31-.67,.6-1.01,.86-.34,.26-.68,.49-1.02,.69-.34,.2-.64,.35-.91,.46l-.16-.37c.31-.15,.64-.36,.99-.63,.35-.27,.67-.59,.97-.96,.3-.37,.55-.79,.75-1.25,.2-.46,.32-.97,.35-1.51V1.61h-2.8v-.6Zm4.06,9.77h5.11v-2.05h1.56v5.19h-8.25v-5.19h1.58v2.05Zm5.11,2.55v-1.95h-5.11v1.95h5.11Zm-2.53-9.9h2.51V.45h1.58V7.85h-1.58v-3.76h-2.51v-.66Z"/>
          <path class="cls-4" d="M85.62,.92h8.22V3.65c0,.89-.17,1.62-.52,2.18-.34,.56-.78,.97-1.31,1.21h3.38l.44-.06,.26,.66h-12.1v-.6h6.46v-.02h.58c.4,0,.7-.27,.91-.81,.21-.54,.31-1.25,.31-2.13V1.51h-6.64V.92Zm.13,8.53h1.58v3.88h7.2l.19,.6h-8.98v-4.48Z"/>
          <path class="cls-4" d="M96.73,7.69c.35-.17,.72-.4,1.1-.69s.73-.64,1.04-1.04,.57-.87,.78-1.4c.21-.53,.32-1.13,.35-1.78V.82h1.61v1.77c0,.18-.02,.36-.05,.53,.1,.44,.25,.86,.46,1.27,.21,.41,.42,.75,.64,1.03,.17,.25,.37,.48,.6,.68,.23,.21,.44,.4,.65,.56,.21,.17,.4,.3,.58,.41,.18,.11,.31,.18,.41,.21l-.1,.36c-.15-.04-.33-.12-.55-.22s-.44-.22-.68-.35-.49-.28-.73-.45c-.25-.17-.47-.33-.68-.49-.18-.16-.4-.35-.65-.57-.25-.22-.46-.44-.64-.65-.28,.42-.6,.81-.97,1.16s-.73,.67-1.1,.93c-.37,.27-.73,.49-1.07,.67-.34,.18-.63,.3-.85,.38l-.15-.37Zm3.14,4c0-.39,.09-.75,.27-1.08,.18-.33,.44-.62,.78-.86,.34-.24,.77-.43,1.27-.57,.5-.14,1.08-.21,1.73-.21s1.23,.07,1.73,.21c.5,.14,.92,.33,1.27,.58s.6,.53,.78,.86,.27,.69,.27,1.07-.09,.75-.27,1.08c-.18,.33-.44,.62-.78,.87s-.77,.44-1.27,.59c-.5,.15-1.08,.22-1.73,.22s-1.22-.07-1.72-.22-.92-.34-1.27-.59c-.34-.25-.61-.54-.79-.87-.18-.33-.27-.69-.27-1.08Zm6.53,0c0-.76-.23-1.32-.7-1.68s-1.06-.54-1.78-.54-1.31,.18-1.77,.54c-.46,.36-.69,.92-.69,1.68s.23,1.33,.69,1.7c.46,.37,1.05,.56,1.77,.56s1.31-.19,1.78-.56,.7-.94,.7-1.7Zm-2.85-8.38h2.8V.47h1.58V8.51h-1.58V3.96h-2.8v-.66Z"/>
          <path class="cls-4" d="M118.58,7.4h-8.62v-.6h1.71V1.61h-1.64v-.6h8.4v.6h-1.48V6.8h1.64v.6Zm-5.33-.6h2.11V1.61h-2.11V6.8Zm.11,4.9c0-.83,.33-1.49,1-1.98,.67-.49,1.68-.74,3.05-.74s2.38,.25,3.05,.75c.67,.5,1,1.16,1,1.97s-.34,1.48-1.01,1.99-1.68,.77-3.04,.77-2.34-.26-3.02-.77c-.68-.51-1.02-1.17-1.02-1.99Zm6.51,0c0-.77-.23-1.33-.68-1.68-.46-.35-1.05-.52-1.79-.52s-1.33,.17-1.78,.52c-.45,.35-.67,.91-.67,1.68s.23,1.33,.67,1.69c.45,.37,1.04,.55,1.78,.55s1.34-.18,1.79-.54c.46-.36,.68-.93,.68-1.7Zm-.15-6.29h-1.9v-.66h1.9v-1.4h-1.9v-.66h1.9V.47h1.58V8.59h-1.58v-3.18Z"/>
          <path class="cls-4" d="M123.63,1.82h6.33v1.39c-.05,.55-.19,1.09-.39,1.64-.21,.54-.48,1.07-.8,1.58-.32,.51-.69,1-1.11,1.46-.42,.46-.86,.89-1.32,1.28-.46,.39-.94,.74-1.43,1.05-.49,.31-.97,.56-1.44,.75l-.18-.39c.62-.31,1.22-.73,1.79-1.26,.57-.53,1.08-1.13,1.53-1.8,.45-.67,.82-1.38,1.11-2.14,.29-.76,.47-1.51,.53-2.27v-.69h-4.63v-.6Zm8.11-1.02h1.58V6.03c.34-.05,.7-.15,1.06-.29,.36-.14,.68-.33,.96-.58,.08,.05,.14,.14,.19,.26,.05,.12,.1,.24,.13,.38,.03,.13,.05,.27,.06,.4,0,.13,0,.24,0,.33h-2.39v6.51h-1.58V.81Z"/>
          <path class="cls-4" d="M140.57,.61c.58,0,1.1,.09,1.55,.27,.45,.18,.83,.42,1.14,.73s.55,.68,.71,1.11c.16,.43,.24,.89,.24,1.39v.06c0,.51-.08,.97-.24,1.39-.16,.42-.4,.8-.71,1.11-.31,.32-.69,.56-1.14,.74-.45,.18-.97,.27-1.55,.27s-1.1-.09-1.55-.27c-.45-.18-.83-.42-1.14-.74s-.55-.69-.71-1.11c-.16-.42-.24-.89-.24-1.39v-.06c0-.49,.08-.96,.25-1.39,.17-.43,.41-.8,.72-1.11,.31-.31,.69-.56,1.14-.73,.45-.18,.96-.27,1.53-.27Zm0,6.61c.35,0,.66-.08,.92-.25,.26-.17,.47-.39,.63-.66,.16-.27,.28-.59,.36-.96,.08-.37,.12-.75,.12-1.16v-.1c0-.4-.04-.78-.12-1.14-.08-.37-.2-.69-.36-.97-.16-.28-.37-.5-.63-.66-.26-.16-.56-.24-.92-.24s-.66,.08-.92,.24c-.26,.16-.47,.38-.63,.66-.16,.28-.28,.6-.36,.97-.08,.37-.12,.75-.12,1.14v.1c0,.41,.04,.8,.12,1.16,.08,.37,.2,.69,.36,.96,.16,.27,.37,.49,.63,.66,.26,.17,.56,.25,.92,.25Zm-1.03,2.42h1.58v3.69h7.03l.19,.6h-8.8v-4.29Zm4.93-7.59h1.85V.47h1.58V10.09h-1.58V6.06h-1.85v-.66h1.85V2.71h-1.85v-.66Z"/>
          <path class="cls-4" d="M151.38,1.34h8.22v3.06c0,.91-.22,1.7-.66,2.38-.44,.68-1.04,1.14-1.79,1.4h4.01l.44-.06,.26,.66h-5.46v4.92h-1.58v-4.92h-5.06v-.6h5.93c.31,0,.6-.07,.88-.22,.27-.15,.52-.37,.73-.65,.21-.28,.38-.64,.51-1.05s.2-.9,.23-1.43V1.93h-6.64v-.6Z"/>
          <path class="cls-4" d="M162.76,7.69v-.94h1.77c.56,0,1.17-.01,1.84-.04,.67-.03,1.33-.08,2-.16,.67-.08,1.3-.19,1.91-.31,.61-.13,1.14-.3,1.59-.52l.13,.29c-.28,.16-.59,.31-.94,.45-.35,.14-.72,.27-1.1,.38-.39,.11-.79,.21-1.2,.3-.41,.09-.82,.16-1.22,.23v2.56h-1.58v-2.35c-.31,.03-.6,.06-.87,.08-.27,.02-.51,.03-.71,.03h-1.61Zm.76-4.72c0-.78,.32-1.4,.95-1.86,.63-.46,1.5-.69,2.59-.69s1.96,.23,2.59,.69c.63,.46,.95,1.08,.95,1.86v.08c0,.39-.08,.74-.25,1.06s-.4,.59-.71,.81c-.31,.23-.68,.4-1.11,.52-.43,.12-.92,.19-1.47,.19s-1.04-.06-1.47-.19c-.43-.12-.8-.3-1.11-.52-.31-.23-.54-.5-.71-.81s-.25-.67-.25-1.06v-.08Zm5.5,.02c0-.35-.05-.66-.15-.93-.1-.26-.24-.48-.42-.65-.18-.17-.38-.3-.62-.39-.24-.09-.49-.13-.76-.13-.57,0-1.03,.18-1.39,.53-.36,.35-.54,.88-.54,1.56v.05c0,.71,.18,1.24,.54,1.6,.36,.35,.82,.53,1.39,.53s1.04-.18,1.4-.53,.55-.89,.55-1.6v-.05Zm-3.38,7.67h1.58v2.68h6.87l.19,.6h-8.64v-3.27Zm4-2.26h2.72V.48h1.58V11.23h-1.58v-2.18h-2.72v-.66Z"/>
        </g>
        <g>
          <path class="cls-5" d="M45.04,16.23h.79v2.4l2.24-2.4h.46l-2.11,2.29,2.32,2.79h-.96l-1.95-2.39v2.39h-.79v-5.08Z"/>
          <path class="cls-5" d="M48.97,19.51c0-.3,.05-.57,.15-.81s.23-.43,.41-.59,.38-.28,.63-.36c.24-.08,.51-.12,.81-.12s.56,.04,.81,.12c.24,.08,.45,.2,.63,.36s.31,.35,.41,.59,.15,.5,.15,.81-.05,.57-.15,.81c-.1,.23-.23,.43-.41,.59s-.38,.28-.63,.36c-.24,.08-.51,.12-.81,.12s-.56-.04-.81-.12c-.24-.08-.45-.2-.63-.36s-.31-.36-.41-.59c-.1-.23-.15-.5-.15-.81Zm3.15,0c0-.52-.1-.93-.3-1.22-.2-.29-.49-.43-.86-.43s-.66,.14-.86,.43c-.2,.29-.3,.7-.3,1.22s.1,.93,.3,1.22c.2,.29,.49,.43,.86,.43s.66-.14,.86-.43c.2-.29,.3-.7,.3-1.22Z"/>
          <path class="cls-5" d="M54.77,18.54c.07-.13,.14-.25,.22-.36,.08-.1,.17-.19,.27-.27,.11-.07,.23-.13,.36-.18,.14-.04,.29-.07,.47-.09l-.04,.36c-.14,0-.29,0-.44,.06s-.28,.12-.4,.22c-.12,.1-.22,.22-.3,.36-.08,.14-.12,.3-.12,.48v2.17h-.79v-3.63h.76v.86Z"/>
          <path class="cls-5" d="M56.7,19.6c0-.38,.06-.69,.17-.94,.11-.25,.25-.45,.43-.61,.18-.15,.38-.26,.6-.32,.22-.06,.45-.1,.67-.1s.43,.03,.63,.1c.2,.07,.38,.17,.54,.3,.16,.14,.28,.31,.38,.51,.1,.21,.14,.45,.14,.72v.15s0,.06,0,.08h-2.71v.05c0,.26,.04,.49,.11,.68,.07,.19,.17,.35,.28,.47,.11,.12,.24,.22,.37,.28,.13,.06,.26,.1,.39,.1,.33,.02,.59-.01,.78-.1,.19-.09,.34-.19,.45-.3l.15,.15c-.17,.2-.39,.35-.67,.44-.28,.09-.56,.13-.87,.11-.27-.02-.52-.07-.75-.17-.22-.1-.42-.22-.58-.38-.16-.15-.29-.34-.38-.54-.09-.21-.13-.43-.13-.67Zm1.87-1.73c-.11,0-.23,.03-.34,.08-.11,.05-.21,.13-.3,.24-.09,.11-.17,.25-.24,.42-.06,.17-.11,.38-.13,.61h1.91c-.01-.4-.09-.73-.23-.98s-.37-.38-.68-.38Z"/>
          <path class="cls-5" d="M62.4,17.87c-.24,0-.44,.05-.61,.12-.17,.07-.34,.18-.51,.3l-.15-.27c.06-.04,.13-.08,.23-.12,.1-.05,.2-.09,.32-.13s.24-.07,.37-.1c.13-.03,.26-.04,.38-.04,.52,0,.91,.08,1.16,.27,.25,.19,.38,.5,.38,.93v1.77c0,.12,0,.21,.02,.28,.02,.07,.04,.12,.07,.16,.03,.04,.08,.06,.13,.07s.12,.02,.2,.02v.12c-.11,.06-.22,.1-.34,.12-.12,.03-.23,.03-.35,.02-.15-.01-.27-.06-.35-.15-.09-.09-.14-.21-.16-.34-.12,.16-.28,.28-.48,.37-.2,.08-.42,.13-.65,.13-.19,0-.36-.03-.5-.08-.14-.05-.26-.12-.35-.21s-.16-.19-.2-.3c-.04-.11-.07-.23-.07-.35,0-.33,.11-.58,.32-.76,.22-.17,.49-.3,.83-.37,.25-.05,.45-.1,.59-.13,.14-.04,.25-.07,.32-.11,.07-.04,.12-.08,.14-.12,.02-.05,.03-.1,.03-.17,0-.11,0-.23-.03-.34-.02-.11-.06-.21-.12-.3-.06-.09-.14-.16-.24-.21s-.24-.08-.41-.08Zm-.68,2.49c0,.19,.06,.34,.18,.47s.31,.2,.58,.2c.21,0,.38-.07,.51-.2,.14-.13,.2-.32,.2-.57v-1c-.11,.06-.24,.11-.41,.15-.16,.04-.33,.08-.49,.15-.16,.06-.3,.15-.41,.27-.11,.12-.17,.3-.17,.53Z"/>
          <path class="cls-5" d="M71.37,20.67c-.23,.28-.5,.47-.81,.59-.31,.11-.64,.17-1,.17s-.71-.07-1-.22-.54-.34-.74-.58c-.2-.24-.35-.52-.46-.83-.1-.31-.15-.64-.15-.97,0-.44,.06-.82,.19-1.16,.13-.33,.31-.61,.54-.84,.23-.23,.5-.4,.81-.51,.31-.12,.65-.17,1.01-.17,.12,0,.25,0,.38,.03,.13,.02,.26,.04,.38,.08s.24,.07,.35,.11c.11,.04,.21,.09,.29,.14l-.13,.27c-.29-.15-.54-.24-.76-.28-.22-.04-.4-.05-.55-.03-.49,.05-.88,.26-1.17,.63-.29,.37-.43,.93-.43,1.68,0,.36,.04,.69,.13,.97s.21,.52,.36,.71c.15,.19,.33,.34,.53,.44,.2,.1,.41,.15,.63,.15,.3,0,.57-.05,.8-.16,.24-.11,.43-.24,.59-.41l.19,.22Z"/>
          <path class="cls-5" d="M71.93,19.6c0-.38,.06-.69,.17-.94,.11-.25,.25-.45,.43-.61,.18-.15,.38-.26,.6-.32,.22-.06,.45-.1,.67-.1s.43,.03,.63,.1c.2,.07,.38,.17,.54,.3,.16,.14,.28,.31,.38,.51,.1,.21,.14,.45,.14,.72v.15s0,.06,0,.08h-2.71v.05c0,.26,.04,.49,.11,.68,.07,.19,.17,.35,.28,.47,.11,.12,.24,.22,.37,.28,.13,.06,.26,.1,.39,.1,.33,.02,.59-.01,.78-.1,.19-.09,.34-.19,.45-.3l.15,.15c-.17,.2-.39,.35-.67,.44-.28,.09-.56,.13-.87,.11-.27-.02-.52-.07-.75-.17-.22-.1-.42-.22-.58-.38-.16-.15-.29-.34-.38-.54-.09-.21-.13-.43-.13-.67Zm1.87-1.73c-.11,0-.23,.03-.34,.08-.11,.05-.21,.13-.3,.24-.09,.11-.17,.25-.24,.42-.06,.17-.11,.38-.13,.61h1.91c-.01-.4-.09-.73-.23-.98s-.37-.38-.68-.38Z"/>
          <path class="cls-5" d="M76.46,17.68h.79v.59c.1-.13,.23-.25,.39-.36,.16-.1,.35-.17,.57-.22,.3-.05,.56-.05,.78,0s.41,.14,.56,.28c.15,.14,.26,.31,.34,.54,.07,.22,.11,.47,.11,.76v2.05h-.79v-1.95c0-.27-.02-.49-.05-.67-.04-.18-.09-.32-.17-.43-.07-.11-.17-.18-.28-.23-.11-.04-.24-.07-.39-.07-.23,0-.45,.09-.64,.24-.2,.15-.34,.35-.43,.58v2.52h-.79v-3.63Z"/>
          <path class="cls-5" d="M82.1,18.03v2.51c0,.21,.03,.34,.08,.42,.05,.07,.12,.11,.19,.12,.1,.01,.19,0,.27-.02s.16-.06,.24-.1l.08,.19c-.1,.07-.21,.13-.32,.17s-.25,.06-.43,.06c-.32,0-.56-.09-.69-.27-.14-.18-.21-.43-.21-.76v-2.31h-.64l.12-.32,.2,.03h.32v-1.1l.79-.38v1.48h.79v.29h-.79Z"/>
          <path class="cls-5" d="M83.63,19.6c0-.38,.06-.69,.17-.94,.11-.25,.25-.45,.43-.61,.18-.15,.38-.26,.6-.32,.22-.06,.45-.1,.67-.1s.43,.03,.63,.1c.2,.07,.38,.17,.54,.3,.16,.14,.28,.31,.38,.51,.1,.21,.14,.45,.14,.72v.15s0,.06,0,.08h-2.71v.05c0,.26,.04,.49,.11,.68,.07,.19,.17,.35,.28,.47,.11,.12,.24,.22,.37,.28,.13,.06,.26,.1,.39,.1,.33,.02,.59-.01,.78-.1,.19-.09,.34-.19,.45-.3l.15,.15c-.17,.2-.39,.35-.67,.44-.28,.09-.56,.13-.87,.11-.27-.02-.52-.07-.75-.17-.22-.1-.42-.22-.58-.38-.16-.15-.29-.34-.38-.54-.09-.21-.13-.43-.13-.67Zm1.87-1.73c-.11,0-.23,.03-.34,.08-.11,.05-.21,.13-.3,.24-.09,.11-.17,.25-.24,.42-.06,.17-.11,.38-.13,.61h1.91c-.01-.4-.09-.73-.23-.98s-.37-.38-.68-.38Z"/>
          <path class="cls-5" d="M88.91,18.54c.07-.13,.14-.25,.22-.36,.08-.1,.17-.19,.27-.27,.11-.07,.23-.13,.36-.18,.14-.04,.29-.07,.47-.09l-.04,.36c-.14,0-.29,0-.44,.06s-.28,.12-.4,.22c-.12,.1-.22,.22-.3,.36-.08,.14-.12,.3-.12,.48v2.17h-.79v-3.63h.76v.86Z"/>
          <path class="cls-5" d="M92.96,17.67l.21,.03h.36v-.41c0-.12,.01-.25,.03-.39,.02-.14,.06-.27,.11-.4,.05-.13,.12-.25,.21-.37,.09-.11,.2-.21,.34-.29,.09-.05,.19-.09,.3-.11,.12-.02,.24-.04,.36-.04,.12,0,.24,0,.36,0,.12,.01,.22,.03,.31,.05l-.05,.23c-.14-.05-.28-.08-.41-.08-.13,0-.24,.02-.35,.07-.1,.05-.19,.14-.26,.27-.07,.13-.12,.3-.14,.51-.02,.11-.02,.26-.03,.43s0,.35,0,.53h1.01v.29h-1.01v3.31h-.79v-3.31h-.69l.12-.32Z"/>
          <path class="cls-5" d="M95.87,19.51c0-.3,.05-.57,.15-.81s.23-.43,.41-.59,.38-.28,.63-.36c.24-.08,.51-.12,.81-.12s.56,.04,.81,.12c.24,.08,.45,.2,.63,.36s.31,.35,.41,.59,.15,.5,.15,.81-.05,.57-.15,.81c-.1,.23-.23,.43-.41,.59s-.38,.28-.63,.36c-.24,.08-.51,.12-.81,.12s-.56-.04-.81-.12c-.24-.08-.45-.2-.63-.36s-.31-.36-.41-.59c-.1-.23-.15-.5-.15-.81Zm3.15,0c0-.52-.1-.93-.3-1.22-.2-.29-.49-.43-.86-.43s-.66,.14-.86,.43c-.2,.29-.3,.7-.3,1.22s.1,.93,.3,1.22c.2,.29,.49,.43,.86,.43s.66-.14,.86-.43c.2-.29,.3-.7,.3-1.22Z"/>
          <path class="cls-5" d="M101.67,18.54c.07-.13,.14-.25,.22-.36,.08-.1,.17-.19,.27-.27,.11-.07,.23-.13,.36-.18,.14-.04,.29-.07,.47-.09l-.04,.36c-.14,0-.29,0-.44,.06s-.28,.12-.4,.22c-.12,.1-.22,.22-.3,.36-.08,.14-.12,.3-.12,.48v2.17h-.79v-3.63h.76v.86Z"/>
          <path class="cls-5" d="M46.36,23.36h.58l2.03,5.08h-.91l-.68-1.8h-1.95l-.66,1.8h-.34l1.94-5.08Zm-.83,3.01h1.74l-.88-2.32-.86,2.32Z"/>
          <path class="cls-5" d="M52.71,27.95c-.17,.2-.39,.35-.65,.44-.26,.09-.55,.13-.85,.11-.27-.02-.52-.07-.75-.17s-.42-.22-.58-.38c-.16-.15-.29-.34-.38-.54-.09-.21-.13-.43-.13-.67,0-.36,.05-.66,.16-.91,.11-.25,.26-.45,.44-.61,.19-.16,.4-.27,.64-.34,.24-.07,.49-.11,.75-.11s.5,.02,.7,.07c.21,.05,.37,.11,.49,.18l-.12,.29c-.16-.13-.34-.21-.52-.26s-.37-.07-.57-.06c-.14,0-.28,.04-.42,.12s-.25,.18-.36,.32c-.1,.14-.19,.31-.25,.52-.06,.21-.09,.45-.09,.72s.04,.49,.11,.68c.07,.19,.17,.35,.28,.48,.11,.13,.23,.22,.37,.29,.14,.06,.27,.1,.39,.1,.16,.01,.31,0,.43-.02,.12-.02,.23-.05,.33-.09,.1-.04,.18-.08,.24-.14s.13-.11,.19-.17l.15,.15Z"/>
          <path class="cls-5" d="M56.65,27.95c-.17,.2-.39,.35-.65,.44-.26,.09-.55,.13-.85,.11-.27-.02-.52-.07-.75-.17s-.42-.22-.58-.38c-.16-.15-.29-.34-.38-.54-.09-.21-.13-.43-.13-.67,0-.36,.05-.66,.16-.91,.11-.25,.26-.45,.44-.61,.19-.16,.4-.27,.64-.34,.24-.07,.49-.11,.75-.11s.5,.02,.7,.07c.21,.05,.37,.11,.49,.18l-.12,.29c-.16-.13-.34-.21-.52-.26s-.37-.07-.57-.06c-.14,0-.28,.04-.42,.12s-.25,.18-.36,.32c-.1,.14-.19,.31-.25,.52-.06,.21-.09,.45-.09,.72s.04,.49,.11,.68c.07,.19,.17,.35,.28,.48,.11,.13,.23,.22,.37,.29,.14,.06,.27,.1,.39,.1,.16,.01,.31,0,.43-.02,.12-.02,.23-.05,.33-.09,.1-.04,.18-.08,.24-.14s.13-.11,.19-.17l.15,.15Z"/>
          <path class="cls-5" d="M57.24,26.73c0-.38,.06-.69,.17-.94,.11-.25,.25-.45,.43-.61,.18-.15,.38-.26,.6-.32,.22-.06,.45-.1,.67-.1s.43,.03,.63,.1c.2,.07,.38,.17,.54,.3,.16,.14,.28,.31,.38,.51,.1,.21,.14,.45,.14,.72v.15s0,.06,0,.08h-2.71v.05c0,.26,.04,.49,.11,.68,.07,.19,.17,.35,.28,.47,.11,.12,.24,.22,.37,.28,.13,.06,.26,.1,.39,.1,.33,.02,.59-.01,.78-.1,.19-.09,.34-.19,.45-.3l.15,.15c-.17,.2-.39,.35-.67,.44-.28,.09-.56,.13-.87,.11-.27-.02-.52-.07-.75-.17-.22-.1-.42-.22-.58-.38-.16-.15-.29-.34-.38-.54-.09-.21-.13-.43-.13-.67Zm1.87-1.73c-.11,0-.23,.03-.34,.08-.11,.05-.21,.13-.3,.24-.09,.11-.17,.25-.24,.42-.06,.17-.11,.38-.13,.61h1.91c-.01-.4-.09-.73-.23-.98s-.37-.38-.68-.38Z"/>
          <path class="cls-5" d="M62.77,28.24c.26,0,.47-.05,.64-.15,.17-.1,.25-.26,.24-.49,0-.15-.05-.28-.16-.38s-.24-.19-.39-.26c-.16-.07-.33-.14-.51-.21-.18-.06-.35-.14-.51-.22-.15-.09-.28-.19-.39-.3-.1-.12-.15-.26-.15-.44,0-.13,.03-.26,.08-.39,.05-.13,.13-.24,.24-.33,.11-.1,.24-.17,.41-.23,.17-.06,.37-.08,.6-.08,.21,0,.4,.01,.58,.04,.18,.03,.39,.1,.64,.21l-.1,.22c-.11-.05-.21-.09-.29-.13-.09-.03-.18-.06-.26-.08-.09-.02-.18-.03-.27-.04-.09,0-.19,0-.3,0-.22,0-.39,.06-.51,.17-.12,.11-.18,.23-.19,.35,0,.13,.04,.24,.15,.32,.11,.08,.24,.16,.4,.22,.16,.07,.34,.13,.53,.2,.19,.07,.37,.15,.53,.26,.16,.1,.29,.23,.4,.39,.1,.15,.15,.35,.14,.59-.02,.34-.14,.59-.37,.76-.23,.17-.59,.26-1.09,.26-.23,0-.47-.05-.71-.15-.24-.1-.48-.26-.73-.49l.16-.19c.17,.16,.36,.3,.58,.41,.22,.11,.42,.16,.61,.16Z"/>
          <path class="cls-5" d="M66.26,28.24c.26,0,.47-.05,.64-.15,.17-.1,.25-.26,.24-.49,0-.15-.05-.28-.16-.38s-.24-.19-.39-.26c-.16-.07-.33-.14-.51-.21-.18-.06-.35-.14-.51-.22-.15-.09-.28-.19-.39-.3-.1-.12-.15-.26-.15-.44,0-.13,.03-.26,.08-.39,.05-.13,.13-.24,.24-.33,.11-.1,.24-.17,.41-.23,.17-.06,.37-.08,.6-.08,.21,0,.4,.01,.58,.04,.18,.03,.39,.1,.64,.21l-.1,.22c-.11-.05-.21-.09-.29-.13-.09-.03-.18-.06-.26-.08-.09-.02-.18-.03-.27-.04-.09,0-.19,0-.3,0-.22,0-.39,.06-.51,.17-.12,.11-.18,.23-.19,.35,0,.13,.04,.24,.15,.32,.11,.08,.24,.16,.4,.22,.16,.07,.34,.13,.53,.2,.19,.07,.37,.15,.53,.26,.16,.1,.29,.23,.4,.39,.1,.15,.15,.35,.14,.59-.02,.34-.14,.59-.37,.76-.23,.17-.59,.26-1.09,.26-.23,0-.47-.05-.71-.15-.24-.1-.48-.26-.73-.49l.16-.19c.17,.16,.36,.3,.58,.41,.22,.11,.42,.16,.61,.16Z"/>
          <path class="cls-5" d="M68.57,23.57c.11-.13,.21-.24,.3-.32,.09-.09,.2-.19,.33-.31,.13,.12,.24,.22,.33,.31s.19,.2,.3,.32c-.11,.13-.21,.24-.3,.32-.09,.09-.2,.19-.33,.31-.13-.12-.24-.22-.33-.31-.09-.09-.19-.2-.3-.32Zm.22,1.25h.79v3.62h-.79v-3.62Z"/>
          <path class="cls-5" d="M70.95,23.05h.79v2.37c.11-.14,.24-.26,.41-.37s.36-.18,.59-.22c.3-.05,.57-.05,.81,.01s.45,.16,.62,.32c.17,.15,.3,.34,.4,.57s.14,.49,.14,.77c0,.35-.05,.65-.15,.91-.1,.26-.23,.47-.41,.63-.17,.16-.38,.28-.63,.36-.24,.07-.51,.1-.81,.08-.25-.02-.46-.06-.61-.14s-.28-.17-.37-.28v.37h-.79v-5.39Zm.79,4.56c.07,.21,.2,.36,.39,.46,.19,.1,.38,.15,.59,.15,.17,0,.34-.02,.49-.07,.15-.04,.28-.13,.39-.25,.11-.12,.19-.29,.25-.51,.06-.22,.09-.5,.09-.85,0-.27-.03-.49-.08-.68-.06-.19-.14-.33-.24-.44-.1-.11-.22-.19-.35-.24s-.27-.07-.42-.07c-.11,0-.23,.02-.34,.07-.11,.04-.22,.1-.32,.18-.1,.07-.19,.16-.27,.26-.08,.1-.14,.21-.19,.32v1.69Z"/>
          <path class="cls-5" d="M75.57,23.57c.11-.13,.21-.24,.3-.32,.09-.09,.2-.19,.33-.31,.13,.12,.24,.22,.33,.31s.19,.2,.3,.32c-.11,.13-.21,.24-.3,.32-.09,.09-.2,.19-.33,.31-.13-.12-.24-.22-.33-.31-.09-.09-.19-.2-.3-.32Zm.22,1.25h.79v3.62h-.79v-3.62Z"/>
          <path class="cls-5" d="M78.79,22.86v5.58h-.79v-5.2l.79-.38Z"/>
          <path class="cls-5" d="M79.94,23.57c.11-.13,.21-.24,.3-.32,.09-.09,.2-.19,.33-.31,.13,.12,.24,.22,.33,.31s.19,.2,.3,.32c-.11,.13-.21,.24-.3,.32-.09,.09-.2,.19-.33,.31-.13-.12-.24-.22-.33-.31-.09-.09-.19-.2-.3-.32Zm.22,1.25h.79v3.62h-.79v-3.62Z"/>
          <path class="cls-5" d="M83.22,25.17v2.51c0,.21,.03,.34,.08,.42,.05,.07,.12,.11,.19,.12,.1,.01,.19,0,.27-.02s.16-.06,.24-.1l.08,.19c-.1,.07-.21,.13-.32,.17s-.25,.06-.43,.06c-.32,0-.56-.09-.69-.27-.14-.18-.21-.43-.21-.76v-2.31h-.64l.12-.32,.2,.03h.32v-1.1l.79-.38v1.48h.79v.29h-.79Z"/>
          <path class="cls-5" d="M86.17,28.42l-1.67-3.6h.88l1.2,2.65,1.17-2.65h.37l-2.4,5.5h-.39l.83-1.9Z"/>
          <path class="cls-5" d="M92.57,23.36h.58l2.03,5.08h-.91l-.68-1.8h-1.95l-.66,1.8h-.34l1.94-5.08Zm-.83,3.01h1.74l-.88-2.32-.86,2.32Z"/>
          <path class="cls-5" d="M96.83,28.24c.26,0,.47-.05,.64-.15,.17-.1,.25-.26,.24-.49,0-.15-.05-.28-.16-.38s-.24-.19-.39-.26c-.16-.07-.33-.14-.51-.21-.18-.06-.35-.14-.51-.22-.15-.09-.28-.19-.39-.3-.1-.12-.15-.26-.15-.44,0-.13,.03-.26,.08-.39,.05-.13,.13-.24,.24-.33,.11-.1,.24-.17,.41-.23,.17-.06,.37-.08,.6-.08,.21,0,.4,.01,.58,.04,.18,.03,.39,.1,.64,.21l-.1,.22c-.11-.05-.21-.09-.29-.13-.09-.03-.18-.06-.26-.08-.09-.02-.18-.03-.27-.04-.09,0-.19,0-.3,0-.22,0-.39,.06-.51,.17-.12,.11-.18,.23-.19,.35,0,.13,.04,.24,.15,.32,.11,.08,.24,.16,.4,.22,.16,.07,.34,.13,.53,.2,.19,.07,.37,.15,.53,.26,.16,.1,.29,.23,.4,.39,.1,.15,.15,.35,.14,.59-.02,.34-.14,.59-.37,.76-.23,.17-.59,.26-1.09,.26-.23,0-.47-.05-.71-.15-.24-.1-.48-.26-.73-.49l.16-.19c.17,.16,.36,.3,.58,.41,.22,.11,.42,.16,.61,.16Z"/>
          <path class="cls-5" d="M100.33,28.24c.26,0,.47-.05,.64-.15,.17-.1,.25-.26,.24-.49,0-.15-.05-.28-.16-.38s-.24-.19-.39-.26c-.16-.07-.33-.14-.51-.21-.18-.06-.35-.14-.51-.22-.15-.09-.28-.19-.39-.3-.1-.12-.15-.26-.15-.44,0-.13,.03-.26,.08-.39,.05-.13,.13-.24,.24-.33,.11-.1,.24-.17,.41-.23,.17-.06,.37-.08,.6-.08,.21,0,.4,.01,.58,.04,.18,.03,.39,.1,.64,.21l-.1,.22c-.11-.05-.21-.09-.29-.13-.09-.03-.18-.06-.26-.08-.09-.02-.18-.03-.27-.04-.09,0-.19,0-.3,0-.22,0-.39,.06-.51,.17-.12,.11-.18,.23-.19,.35,0,.13,.04,.24,.15,.32,.11,.08,.24,.16,.4,.22,.16,.07,.34,.13,.53,.2,.19,.07,.37,.15,.53,.26,.16,.1,.29,.23,.4,.39,.1,.15,.15,.35,.14,.59-.02,.34-.14,.59-.37,.76-.23,.17-.59,.26-1.09,.26-.23,0-.47-.05-.71-.15-.24-.1-.48-.26-.73-.49l.16-.19c.17,.16,.36,.3,.58,.41,.22,.11,.42,.16,.61,.16Z"/>
          <path class="cls-5" d="M102.57,26.73c0-.38,.06-.69,.17-.94,.11-.25,.25-.45,.43-.61,.18-.15,.38-.26,.6-.32,.22-.06,.45-.1,.67-.1s.43,.03,.63,.1c.2,.07,.38,.17,.54,.3,.16,.14,.28,.31,.38,.51,.1,.21,.14,.45,.14,.72v.15s0,.06,0,.08h-2.71v.05c0,.26,.04,.49,.11,.68,.07,.19,.17,.35,.28,.47,.11,.12,.24,.22,.37,.28,.13,.06,.26,.1,.39,.1,.33,.02,.59-.01,.78-.1,.19-.09,.34-.19,.45-.3l.15,.15c-.17,.2-.39,.35-.67,.44-.28,.09-.56,.13-.87,.11-.27-.02-.52-.07-.75-.17-.22-.1-.42-.22-.58-.38-.16-.15-.29-.34-.38-.54-.09-.21-.13-.43-.13-.67Zm1.87-1.73c-.11,0-.23,.03-.34,.08-.11,.05-.21,.13-.3,.24-.09,.11-.17,.25-.24,.42-.06,.17-.11,.38-.13,.61h1.91c-.01-.4-.09-.73-.23-.98s-.37-.38-.68-.38Z"/>
          <path class="cls-5" d="M108.1,28.24c.26,0,.47-.05,.64-.15,.17-.1,.25-.26,.24-.49,0-.15-.05-.28-.16-.38s-.24-.19-.39-.26c-.16-.07-.33-.14-.51-.21-.18-.06-.35-.14-.51-.22-.15-.09-.28-.19-.39-.3-.1-.12-.15-.26-.15-.44,0-.13,.03-.26,.08-.39,.05-.13,.13-.24,.24-.33,.11-.1,.24-.17,.41-.23,.17-.06,.37-.08,.6-.08,.21,0,.4,.01,.58,.04,.18,.03,.39,.1,.64,.21l-.1,.22c-.11-.05-.21-.09-.29-.13-.09-.03-.18-.06-.26-.08-.09-.02-.18-.03-.27-.04-.09,0-.19,0-.3,0-.22,0-.39,.06-.51,.17-.12,.11-.18,.23-.19,.35,0,.13,.04,.24,.15,.32,.11,.08,.24,.16,.4,.22,.16,.07,.34,.13,.53,.2,.19,.07,.37,.15,.53,.26,.16,.1,.29,.23,.4,.39,.1,.15,.15,.35,.14,.59-.02,.34-.14,.59-.37,.76-.23,.17-.59,.26-1.09,.26-.23,0-.47-.05-.71-.15-.24-.1-.48-.26-.73-.49l.16-.19c.17,.16,.36,.3,.58,.41,.22,.11,.42,.16,.61,.16Z"/>
          <path class="cls-5" d="M111.59,28.24c.26,0,.47-.05,.64-.15,.17-.1,.25-.26,.24-.49,0-.15-.05-.28-.16-.38s-.24-.19-.39-.26c-.16-.07-.33-.14-.51-.21-.18-.06-.35-.14-.51-.22-.15-.09-.28-.19-.39-.3-.1-.12-.15-.26-.15-.44,0-.13,.03-.26,.08-.39,.05-.13,.13-.24,.24-.33,.11-.1,.24-.17,.41-.23,.17-.06,.37-.08,.6-.08,.21,0,.4,.01,.58,.04,.18,.03,.39,.1,.64,.21l-.1,.22c-.11-.05-.21-.09-.29-.13-.09-.03-.18-.06-.26-.08-.09-.02-.18-.03-.27-.04-.09,0-.19,0-.3,0-.22,0-.39,.06-.51,.17-.12,.11-.18,.23-.19,.35,0,.13,.04,.24,.15,.32,.11,.08,.24,.16,.4,.22,.16,.07,.34,.13,.53,.2,.19,.07,.37,.15,.53,.26,.16,.1,.29,.23,.4,.39,.1,.15,.15,.35,.14,.59-.02,.34-.14,.59-.37,.76-.23,.17-.59,.26-1.09,.26-.23,0-.47-.05-.71-.15-.24-.1-.48-.26-.73-.49l.16-.19c.17,.16,.36,.3,.58,.41,.22,.11,.42,.16,.61,.16Z"/>
          <path class="cls-5" d="M114.09,24.81h.79v.57c.1-.14,.23-.26,.37-.36,.14-.1,.3-.17,.48-.19,.38-.06,.68-.04,.93,.06,.24,.1,.42,.26,.55,.49,.11-.13,.25-.25,.41-.36,.17-.11,.35-.17,.54-.19,.6-.07,1.04,.03,1.31,.3s.41,.69,.41,1.27v2.05h-.79v-1.95c0-.27-.01-.49-.04-.67s-.07-.32-.14-.43c-.06-.11-.15-.18-.25-.23-.1-.04-.23-.07-.38-.07-.19,0-.36,.06-.53,.17s-.3,.24-.4,.4c.06,.22,.08,.46,.08,.73v2.05h-.79v-1.95c0-.27-.01-.49-.04-.67-.03-.18-.07-.33-.13-.44-.06-.11-.14-.18-.24-.23-.1-.04-.23-.06-.37-.06-.2,.01-.38,.09-.56,.24-.18,.15-.31,.34-.4,.56v2.54h-.79v-3.63Z"/>
          <path class="cls-5" d="M120.82,26.73c0-.38,.06-.69,.17-.94,.11-.25,.25-.45,.43-.61,.18-.15,.38-.26,.6-.32,.22-.06,.45-.1,.67-.1s.43,.03,.63,.1c.2,.07,.38,.17,.54,.3,.16,.14,.28,.31,.38,.51,.1,.21,.14,.45,.14,.72v.15s0,.06,0,.08h-2.71v.05c0,.26,.04,.49,.11,.68,.07,.19,.17,.35,.28,.47,.11,.12,.24,.22,.37,.28,.13,.06,.26,.1,.39,.1,.33,.02,.59-.01,.78-.1,.19-.09,.34-.19,.45-.3l.15,.15c-.17,.2-.39,.35-.67,.44-.28,.09-.56,.13-.87,.11-.27-.02-.52-.07-.75-.17-.22-.1-.42-.22-.58-.38-.16-.15-.29-.34-.38-.54-.09-.21-.13-.43-.13-.67Zm1.87-1.73c-.11,0-.23,.03-.34,.08-.11,.05-.21,.13-.3,.24-.09,.11-.17,.25-.24,.42-.06,.17-.11,.38-.13,.61h1.91c-.01-.4-.09-.73-.23-.98s-.37-.38-.68-.38Z"/>
          <path class="cls-5" d="M125.35,24.81h.79v.59c.1-.13,.23-.25,.39-.36,.16-.1,.35-.17,.57-.22,.3-.05,.56-.05,.78,0s.41,.14,.56,.28c.15,.14,.26,.31,.34,.54,.07,.22,.11,.47,.11,.76v2.05h-.79v-1.95c0-.27-.02-.49-.05-.67-.04-.18-.09-.32-.17-.43-.07-.11-.17-.18-.28-.23-.11-.04-.24-.07-.39-.07-.23,0-.45,.09-.64,.24-.2,.15-.34,.35-.43,.58v2.52h-.79v-3.63Z"/>
          <path class="cls-5" d="M130.99,25.17v2.51c0,.21,.03,.34,.08,.42,.05,.07,.12,.11,.19,.12,.1,.01,.19,0,.27-.02s.16-.06,.24-.1l.08,.19c-.1,.07-.21,.13-.32,.17s-.25,.06-.43,.06c-.32,0-.56-.09-.69-.27-.14-.18-.21-.43-.21-.76v-2.31h-.64l.12-.32,.2,.03h.32v-1.1l.79-.38v1.48h.79v.29h-.79Z"/>
          <path class="cls-5" d="M134.78,27.33c0-.19,.02-.36,.06-.5,.04-.14,.12-.27,.22-.39,.1-.12,.24-.24,.41-.35s.38-.24,.64-.38c-.11-.15-.2-.28-.28-.4-.08-.12-.14-.23-.19-.33-.05-.1-.08-.2-.1-.29-.02-.09-.03-.18-.03-.27,0-.22,.03-.41,.1-.56s.16-.28,.28-.37c.12-.09,.26-.16,.41-.2s.32-.06,.49-.06c.36,0,.64,.08,.84,.24,.2,.16,.3,.38,.3,.67,0,.09,0,.18-.03,.28-.02,.1-.06,.21-.13,.32-.07,.12-.16,.24-.29,.37-.13,.13-.3,.27-.52,.42l1.24,1.54c.18-.24,.36-.5,.52-.78s.32-.56,.46-.85l.34,.4c-.06,.1-.14,.21-.22,.33s-.18,.25-.28,.38c-.1,.13-.2,.26-.31,.39-.11,.13-.21,.25-.3,.36l.92,1.14h-1.05l-.44-.56c-.32,.26-.62,.44-.9,.52-.28,.09-.55,.13-.82,.13-.21,0-.39-.03-.56-.1-.17-.07-.31-.16-.42-.27s-.2-.24-.27-.39c-.06-.14-.09-.29-.09-.44Zm.76-.41c0,.15,.02,.3,.07,.44s.12,.26,.22,.36,.22,.19,.37,.25,.33,.09,.53,.08c.06,0,.12,0,.19-.01,.06,0,.13-.03,.21-.05,.08-.03,.16-.07,.24-.12,.08-.05,.18-.12,.28-.21l-1.33-1.67-.04-.05c-.29,.2-.49,.37-.59,.53-.11,.16-.16,.31-.16,.46Zm.69-2.83c0,.22,.06,.43,.17,.63s.24,.39,.38,.56l.02,.03c.25-.16,.44-.34,.58-.52,.14-.19,.21-.41,.21-.69,0-.12-.02-.22-.07-.3-.04-.08-.1-.15-.16-.2s-.14-.09-.22-.11c-.08-.02-.15-.03-.22-.03-.22,0-.39,.06-.51,.17-.12,.11-.19,.27-.19,.48Z"/>
          <path class="cls-5" d="M144.59,23.36c.24,0,.46,.03,.66,.08,.2,.05,.37,.13,.52,.24,.15,.11,.26,.25,.34,.42s.12,.38,.12,.61c0,.15-.02,.3-.07,.44-.04,.14-.11,.28-.2,.4-.09,.13-.2,.24-.34,.34-.14,.1-.3,.18-.49,.24l1.37,2.3h-.86l-1.23-2.22h-.86v2.22h-.79v-5.08h1.81Zm-.36,2.59c.23,0,.42-.03,.58-.09,.16-.06,.29-.14,.4-.25,.1-.11,.18-.24,.22-.38,.05-.15,.07-.31,.07-.48,0-.34-.09-.61-.28-.81s-.49-.3-.9-.3h-.76v2.32h.66Z"/>
          <path class="cls-5" d="M147.06,26.73c0-.38,.06-.69,.17-.94,.11-.25,.25-.45,.43-.61,.18-.15,.38-.26,.6-.32,.22-.06,.45-.1,.67-.1s.43,.03,.63,.1c.2,.07,.38,.17,.54,.3,.16,.14,.28,.31,.38,.51,.1,.21,.14,.45,.14,.72v.15s0,.06,0,.08h-2.71v.05c0,.26,.04,.49,.11,.68,.07,.19,.17,.35,.28,.47,.11,.12,.24,.22,.37,.28,.13,.06,.26,.1,.39,.1,.33,.02,.59-.01,.78-.1,.19-.09,.34-.19,.45-.3l.15,.15c-.17,.2-.39,.35-.67,.44-.28,.09-.56,.13-.87,.11-.27-.02-.52-.07-.75-.17-.22-.1-.42-.22-.58-.38-.16-.15-.29-.34-.38-.54-.09-.21-.13-.43-.13-.67Zm1.87-1.73c-.11,0-.23,.03-.34,.08-.11,.05-.21,.13-.3,.24-.09,.11-.17,.25-.24,.42-.06,.17-.11,.38-.13,.61h1.91c-.01-.4-.09-.73-.23-.98s-.37-.38-.68-.38Z"/>
          <path class="cls-5" d="M152.59,28.24c.26,0,.47-.05,.64-.15,.17-.1,.25-.26,.24-.49,0-.15-.05-.28-.16-.38s-.24-.19-.39-.26c-.16-.07-.33-.14-.51-.21-.18-.06-.35-.14-.51-.22-.15-.09-.28-.19-.39-.3-.1-.12-.15-.26-.15-.44,0-.13,.03-.26,.08-.39,.05-.13,.13-.24,.24-.33,.11-.1,.24-.17,.41-.23,.17-.06,.37-.08,.6-.08,.21,0,.4,.01,.58,.04,.18,.03,.39,.1,.64,.21l-.1,.22c-.11-.05-.21-.09-.29-.13-.09-.03-.18-.06-.26-.08-.09-.02-.18-.03-.27-.04-.09,0-.19,0-.3,0-.22,0-.39,.06-.51,.17-.12,.11-.18,.23-.19,.35,0,.13,.04,.24,.15,.32,.11,.08,.24,.16,.4,.22,.16,.07,.34,.13,.53,.2,.19,.07,.37,.15,.53,.26,.16,.1,.29,.23,.4,.39,.1,.15,.15,.35,.14,.59-.02,.34-.14,.59-.37,.76-.23,.17-.59,.26-1.09,.26-.23,0-.47-.05-.71-.15-.24-.1-.48-.26-.73-.49l.16-.19c.17,.16,.36,.3,.58,.41,.22,.11,.42,.16,.61,.16Z"/>
          <path class="cls-5" d="M154.84,26.73c0-.38,.06-.69,.17-.94,.11-.25,.25-.45,.43-.61,.18-.15,.38-.26,.6-.32,.22-.06,.45-.1,.67-.1s.43,.03,.63,.1c.2,.07,.38,.17,.54,.3,.16,.14,.28,.31,.38,.51,.1,.21,.14,.45,.14,.72v.15s0,.06,0,.08h-2.71v.05c0,.26,.04,.49,.11,.68,.07,.19,.17,.35,.28,.47,.11,.12,.24,.22,.37,.28,.13,.06,.26,.1,.39,.1,.33,.02,.59-.01,.78-.1,.19-.09,.34-.19,.45-.3l.15,.15c-.17,.2-.39,.35-.67,.44-.28,.09-.56,.13-.87,.11-.27-.02-.52-.07-.75-.17-.22-.1-.42-.22-.58-.38-.16-.15-.29-.34-.38-.54-.09-.21-.13-.43-.13-.67Zm1.87-1.73c-.11,0-.23,.03-.34,.08-.11,.05-.21,.13-.3,.24-.09,.11-.17,.25-.24,.42-.06,.17-.11,.38-.13,.61h1.91c-.01-.4-.09-.73-.23-.98s-.37-.38-.68-.38Z"/>
          <path class="cls-5" d="M160.53,25c-.24,0-.44,.05-.61,.12-.17,.07-.34,.18-.51,.3l-.15-.27c.06-.04,.13-.08,.23-.12,.1-.05,.2-.09,.32-.13s.24-.07,.37-.1c.13-.03,.26-.04,.38-.04,.52,0,.91,.08,1.16,.27,.25,.19,.38,.5,.38,.93v1.77c0,.12,0,.21,.02,.28,.02,.07,.04,.12,.07,.16,.03,.04,.08,.06,.13,.07s.12,.02,.2,.02v.12c-.11,.06-.22,.1-.34,.12-.12,.03-.23,.03-.35,.02-.15-.01-.27-.06-.35-.15-.09-.09-.14-.21-.16-.34-.12,.16-.28,.28-.48,.37-.2,.08-.42,.13-.65,.13-.19,0-.36-.03-.5-.08-.14-.05-.26-.12-.35-.21s-.16-.19-.2-.3c-.04-.11-.07-.23-.07-.35,0-.33,.11-.58,.32-.76,.22-.17,.49-.3,.83-.37,.25-.05,.45-.1,.59-.13,.14-.04,.25-.07,.32-.11,.07-.04,.12-.08,.14-.12,.02-.05,.03-.1,.03-.17,0-.11,0-.23-.03-.34-.02-.11-.06-.21-.12-.3-.06-.09-.14-.16-.24-.21s-.24-.08-.41-.08Zm-.68,2.49c0,.19,.06,.34,.18,.47s.31,.2,.58,.2c.21,0,.38-.07,.51-.2,.14-.13,.2-.32,.2-.57v-1c-.11,.06-.24,.11-.41,.15-.16,.04-.33,.08-.49,.15-.16,.06-.3,.15-.41,.27-.11,.12-.17,.3-.17,.53Z"/>
          <path class="cls-5" d="M164.13,25.68c.07-.13,.14-.25,.22-.36,.08-.1,.17-.19,.27-.27,.11-.07,.23-.13,.36-.18,.14-.04,.29-.07,.47-.09l-.04,.36c-.14,0-.29,0-.44,.06s-.28,.12-.4,.22c-.12,.1-.22,.22-.3,.36-.08,.14-.12,.3-.12,.48v2.17h-.79v-3.63h.76v.86Z"/>
          <path class="cls-5" d="M169.33,27.95c-.17,.2-.39,.35-.65,.44-.26,.09-.55,.13-.85,.11-.27-.02-.52-.07-.75-.17s-.42-.22-.58-.38c-.16-.15-.29-.34-.38-.54-.09-.21-.13-.43-.13-.67,0-.36,.05-.66,.16-.91,.11-.25,.26-.45,.44-.61,.19-.16,.4-.27,.64-.34,.24-.07,.49-.11,.75-.11s.5,.02,.7,.07c.21,.05,.37,.11,.49,.18l-.12,.29c-.16-.13-.34-.21-.52-.26s-.37-.07-.57-.06c-.14,0-.28,.04-.42,.12s-.25,.18-.36,.32c-.1,.14-.19,.31-.25,.52-.06,.21-.09,.45-.09,.72s.04,.49,.11,.68c.07,.19,.17,.35,.28,.48,.11,.13,.23,.22,.37,.29,.14,.06,.27,.1,.39,.1,.16,.01,.31,0,.43-.02,.12-.02,.23-.05,.33-.09,.1-.04,.18-.08,.24-.14s.13-.11,.19-.17l.15,.15Z"/>
          <path class="cls-5" d="M170.18,23.05h.79v2.35c.1-.13,.23-.25,.39-.36,.16-.1,.35-.17,.57-.22,.6-.11,1.04-.02,1.34,.27,.3,.29,.45,.72,.45,1.29v2.05h-.79v-1.95c0-.27-.02-.49-.05-.67-.04-.18-.09-.32-.17-.43-.07-.11-.17-.18-.28-.23-.11-.04-.24-.07-.39-.07-.11,0-.22,.02-.33,.06s-.21,.1-.3,.17c-.1,.07-.18,.16-.25,.26-.07,.1-.13,.21-.18,.32v2.53h-.79v-5.39Z"/>
        </g>
      </g>
    </g>
  </g>
</svg>